# xmcd
#
# Track frame offsets:
#	150
#	13447
#	28237
#	43987
#	56530
#	69967
#	85095
#	99725
#	118192
#	129072
#	147097
#	162622
#
# Disc length: 2266 seconds
#
# Revision: 1
# Processed by: cddbd v1.5.1PL0 Copyright (c) Steve Scherf et al.
# Submitted via: audiograbber 1.83.01
#
DISCID=a908d80c
DTITLE=Ηλίας Λιούγκος - ΘΑ ΤΡΑΓΟΥΔΗΣΩ ΑΠΟΨΕ ΓΙΑ ΜΕΝΑ
DYEAR=1990
DGENRE=
TTITLE0=Θα τραγουδήσω απόψε για μένα
TTITLE1=Το γράμμα
TTITLE2=Χάσε τον καιρό
TTITLE3=Ενός λεπτού φυγή
TTITLE4=Μάνα μου
TTITLE5=Τι κάνεις Αλέξαντρε
TTITLE6=Υποβολέας
TTITLE7=Αχ το τραγούδι
TTITLE8=Κοριτσάκι του παρόντος
TTITLE9=Μονάχος ειν' ο έρωτας
TTITLE10=Οι ρομαντικές αγάπες
TTITLE11=Δεν είναι εδώ κανείς
EXTD=
EXTT0=
EXTT1=
EXTT2=
EXTT3=
EXTT4=
EXTT5=
EXTT6=
EXTT7=
EXTT8=
EXTT9=
EXTT10=
EXTT11=
PLAYORDER=
